<svg xmlns="http://www.w3.org/2000/svg" viewBox="0 0 750 500"><g id="freepik--background-simple--inject-522"><g><path d="M301.2,95.68c-26.71,1.7-52.47,5.3-75.31,10.97-26.92,6.67-54.43,17.07-46.31,30.66,15,25.1,86.96,25.56,72.6,42.44-16.28,19.12-5.36,41.54,67.67,47.78,138.71,11.84,306.39-57.46,259.29-95.54-29.32-23.71-136.11-45.31-277.94-36.3Z" style="fill:#AD8A32;"></path><path d="M301.2,95.68c-26.71,1.7-52.47,5.3-75.31,10.97-26.92,6.67-54.43,17.07-46.31,30.66,15,25.1,86.96,25.56,72.6,42.44-16.28,19.12-5.36,41.54,67.67,47.78,138.71,11.84,306.39-57.46,259.29-95.54-29.32-23.71-136.11-45.31-277.94-36.3Z" style="fill:#fff; opacity:.9;"></path></g></g><g id="freepik--Shadow--inject-522"><path d="M572.71,454.53c0,3.39-93.52,6.13-208.87,6.13s-208.87-2.75-208.87-6.13,93.52-6.13,208.87-6.13,208.87,2.75,208.87,6.13Z" style="fill:#f5f5f5;"></path></g><g id="freepik--Sun--inject-522"><g id="freepik--freepik--Sun--inject-5--inject-522"><g><path d="M345.56,93.6c0,3.02-4.37,5.42-5.11,8.2-.75,2.78,1.79,7.14,.33,9.65-1.45,2.51-6.46,2.47-8.53,4.53-2.07,2.06-1.98,7.06-4.53,8.53-2.55,1.47-6.78-1.1-9.65-.33-2.88,.76-5.19,5.11-8.2,5.11s-5.42-4.37-8.2-5.11c-2.78-.75-7.13,1.8-9.65,.33-2.52-1.46-2.46-6.46-4.53-8.53s-7.05-1.97-8.53-4.53c-1.48-2.56,1.1-6.8,.33-9.67-.76-2.87-5.11-5.18-5.11-8.2s4.37-5.41,5.11-8.19c.75-2.78-1.79-7.14-.33-9.65,1.45-2.51,6.46-2.47,8.53-4.54,2.07-2.07,1.98-7.05,4.53-8.53,2.55-1.48,6.78,1.11,9.65,.33,2.88-.77,5.19-5.1,8.2-5.1s5.42,4.37,8.2,5.1c2.78,.74,7.13-1.79,9.65-.33,2.52,1.45,2.46,6.46,4.53,8.53,2.07,2.07,7.05,1.98,8.53,4.54,1.48,2.56-1.1,6.78-.33,9.65,.76,2.88,5.11,5.2,5.11,8.21Z" style="fill:#AD8A32;"></path><path d="M345.56,93.6c0,3.02-4.37,5.42-5.11,8.2-.75,2.78,1.79,7.14,.33,9.65-1.45,2.51-6.46,2.47-8.53,4.53-2.07,2.06-1.98,7.06-4.53,8.53-2.55,1.47-6.78-1.1-9.65-.33-2.88,.76-5.19,5.11-8.2,5.11s-5.42-4.37-8.2-5.11c-2.78-.75-7.13,1.8-9.65,.33-2.52-1.46-2.46-6.46-4.53-8.53s-7.05-1.97-8.53-4.53c-1.48-2.56,1.1-6.8,.33-9.67-.76-2.87-5.11-5.18-5.11-8.2s4.37-5.41,5.11-8.19c.75-2.78-1.79-7.14-.33-9.65,1.45-2.51,6.46-2.47,8.53-4.54,2.07-2.07,1.98-7.05,4.53-8.53,2.55-1.48,6.78,1.11,9.65,.33,2.88-.77,5.19-5.1,8.2-5.1s5.42,4.37,8.2,5.1c2.78,.74,7.13-1.79,9.65-.33,2.52,1.45,2.46,6.46,4.53,8.53,2.07,2.07,7.05,1.98,8.53,4.54,1.48,2.56-1.1,6.78-.33,9.65,.76,2.88,5.11,5.2,5.11,8.21Z" style="fill:#fff;"></path></g><circle cx="309.87" cy="93.59" r="25.51" transform="translate(-.62 185.11) rotate(-33.23)" style="fill:#AD8A32;"></circle></g></g><g id="freepik--Birds--inject-522"><g><path d="M469.29,139.58s.68-9.67,2.49-11.18c1.81-1.51,12.85-5.18,12.85-5.18,0,0-4.37,14.91-7.03,16.63-2.66,1.72-8.32-.27-8.32-.27Z" style="fill:#AD8A32;"></path><path d="M484.64,123.21h0c-.14,.46-4.42,14.95-7.03,16.63-1.75,.77-3.63,.92-5.45,.46-.97-.17-1.92-.41-2.87-.73,0,0,.7-9.69,2.49-11.18,1.79-1.49,11.84-4.86,12.79-5.16h0l.06-.02Z" style="fill:#fff; opacity:.6;"></path><path d="M463.66,133.77c2.5,0,8.21,3.44,10.09,3.61,1.88,.17,11.23-7.93,13.23-9.27,2-1.34,19.62-4.32,19.62-4.32,0,0-11.68,15.07-19.62,15.51,0,0,5.87,2.06,7.59,1.51,5.44-1.41,6.48-1.98,12.03-1.92l-6.37,4.34,9.54,1.47c-4.42,.99-8.92,1.2-13.38,.63-3.41,1.57-6.92,2.8-10.49,3.65-4.97,1.6-10.24,.24-14.31-3.69-3.43-3.5-14.73-7.46-14.73-7.46l3.85-1.72c.56-1.41,1.69-2.31,2.94-2.35Z" style="fill:#AD8A32;"></path><path d="M463.66,133.77c2.5,0,8.21,3.44,10.09,3.61,1.88,.17,11.23-7.93,13.23-9.27,2-1.34,19.62-4.32,19.62-4.32,0,0-11.68,15.07-19.62,15.51,0,0,5.87,2.06,7.59,1.51,5.44-1.41,6.48-1.98,12.03-1.92l-6.37,4.34,9.54,1.47c-4.42,.99-8.92,1.2-13.38,.63-3.41,1.57-6.92,2.8-10.49,3.65-4.97,1.6-10.24,.24-14.31-3.69-3.43-3.5-14.73-7.46-14.73-7.46l3.85-1.72c.56-1.41,1.69-2.31,2.94-2.35Z" style="fill:#fff; opacity:.8;"></path><polygon points="460.65 136.18 461.74 137.17 461.08 139.58 456.87 137.84 460.65 136.18" style="fill:#263238;"></polygon><path d="M465.4,137.24c0,.64-.41,1.16-.92,1.16s-.92-.52-.92-1.16,.41-1.16,.92-1.16,.92,.52,.92,1.16Z" style="fill:#263238;"></path></g><g><g><path d="M412.88,106.97c1.82-1.53,9.32,9.28,12.87,10.63-2.52,1.16-5.26,1.21-7.8,.13-3.91-1.84-6.99-9.17-5.07-10.76Z" style="fill:#AD8A32;"></path><path d="M425.75,117.6c-2.52,1.15-5.25,1.2-7.8,.16-3.91-1.84-6.99-9.19-5.07-10.78,.43-.38,1.18,0,2.12,.69,3.03,2.37,8.05,8.9,10.75,9.94Z" style="fill:#fff; opacity:.6;"></path><path d="M406.97,104.89c1.84-.55,6.43,1.15,7.83,.95,1.41-.2,9.94-.97,9.94-.97,2.36-.36,4.04-.46,5.94-.9,3.84-2.11,7.64-3.02,11.73-4l-7.5,5.49,7.14-.55c-3.14,1.61-6.44,2.62-9.79,3.01-2.34,1.85-4.78,3.44-7.3,4.78-3.47,2.19-7.51,2.11-10.93-.22-2.91-2.08-11.68-3.08-11.68-3.08l2.65-2.06c.25-1.26,1.02-2.21,1.97-2.46Z" style="fill:#AD8A32;"></path><path d="M406.97,104.89c1.84-.55,6.43,1.15,7.83,.95,1.41-.2,9.94-.97,9.94-.97,2.36-.36,4.04-.46,5.94-.9,3.84-2.11,7.64-3.02,11.73-4l-7.5,5.49,7.14-.55c-3.14,1.61-6.44,2.62-9.79,3.01-2.34,1.85-4.78,3.44-7.3,4.78-3.47,2.19-7.51,2.11-10.93-.22-2.91-2.08-11.68-3.08-11.68-3.08l2.65-2.06c.25-1.26,1.02-2.21,1.97-2.46Z" style="fill:#fff; opacity:.8;"></path><polygon points="404.95 107.35 405.86 107.9 405.64 109.9 402.3 109.41 404.95 107.35" style="fill:#263238;"></polygon><path d="M416.87,105.93c3.31-2.35,22.43,7.86,30.28,8.33-5.26,2.2-10.78,3.08-16.28,2.59-8.83-.91-17.52-8.46-14-10.92Z" style="fill:#AD8A32;"></path><path d="M408.17,107.61c0,.51-.33,.92-.73,.92s-.73-.41-.73-.92,.33-.92,.73-.92,.73,.41,.73,.92Z" style="fill:#263238;"></path></g><path d="M416.87,105.93c3.31-2.35,22.43,7.86,30.28,8.33-5.26,2.2-10.78,3.08-16.28,2.59-8.83-.91-17.52-8.46-14-10.92Z" style="fill:#fff; opacity:.8;"></path></g></g><g id="freepik--Rocks--inject-522"><g><polygon points="715.02 392.9 712.41 379.31 693.44 367.04 679.11 365 668.6 350.4 615.82 353.07 589.41 359.66 574.49 377.52 564.49 379.31 551.07 392.9 715.02 392.9" style="fill:#263238;"></polygon><polygon points="715.02 392.9 712.41 379.31 693.44 367.04 679.11 365 668.6 350.4 615.82 353.07 589.41 359.66 574.49 377.52 564.49 379.31 551.07 392.9 715.02 392.9" style="fill:#fff; isolation:isolate; opacity:.5;"></polygon><polygon points="693.44 367.04 669.92 368.49 668.57 350.02 679.11 365 693.44 367.04" style="isolation:isolate; opacity:.2;"></polygon><path d="M574.49,377.52v1.31l26.63,1.3s-34.16,.65-34.26,.81-14.56,10.72-14.56,10.72l12.21-12.35,9.99-1.79Z" style="isolation:isolate; opacity:.2;"></path></g><g><polygon points="581.5 392.15 577.99 373.86 552.45 357.35 533.17 354.61 519.02 334.96 447.98 338.55 412.44 347.42 392.36 371.46 378.91 373.86 360.84 392.15 581.5 392.15" style="fill:#263238;"></polygon><polygon points="581.5 392.15 577.99 373.86 552.45 357.35 533.17 354.61 519.02 334.96 447.98 338.55 412.44 347.42 392.36 371.46 378.91 373.86 360.84 392.15 581.5 392.15" style="fill:#fff; isolation:isolate; opacity:.5;"></polygon><polygon points="552.45 357.35 520.8 359.29 518.99 334.44 533.17 354.61 552.45 357.35" style="isolation:isolate; opacity:.2;"></polygon><path d="M392.36,371.46v1.76l35.84,1.75s-45.97,.87-46.11,1.09c-.14,.22-19.6,14.42-19.6,14.42l16.43-16.62,13.45-2.4Z" style="isolation:isolate; opacity:.2;"></path></g><g><polygon points="57.23 394.33 58.57 382.79 68.27 372.37 75.59 370.64 80.96 358.24 107.94 360.51 121.44 366.11 129.07 381.28 134.18 382.79 141.04 394.33 57.23 394.33" style="fill:#263238;"></polygon><polygon points="57.23 394.33 58.57 382.79 68.27 372.37 75.59 370.64 80.96 358.24 107.94 360.51 121.44 366.11 129.07 381.28 134.18 382.79 141.04 394.33 57.23 394.33" style="fill:#fff; isolation:isolate; opacity:.5;"></polygon><polygon points="68.27 372.37 80.29 373.6 80.98 357.92 75.59 370.64 68.27 372.37" style="isolation:isolate; opacity:.2;"></polygon><path d="M129.07,381.28v1.11l-13.61,1.1s17.46,.55,17.51,.69c.05,.14,7.44,9.1,7.44,9.1l-6.24-10.49-5.11-1.52Z" style="isolation:isolate; opacity:.2;"></path></g></g><g id="freepik--Tree_2--inject-522"><g id="freepik--freepik--tree-1--inject-2--inject-522"><path d="M713.49,241.79c-1.64-.99-3.54-1.47-5.46-1.37-1.18-1.43-.23-3.57,.91-5.03,1.14-1.45,2.53-3.11,2.1-4.91-.67-2.7-4.46-2.81-7.2-2.28-1.01-1.63-.98-3.66-1.48-5.54-.49-1.88-2.1-3.86-3.89-3.6-1.79,.26-2.89,2.24-4.65,2.66-2.05,.48-3.83-1.33-5.43-2.69-.2-.17-.41-.33-.62-.47h0c.34-5.62,5.68-4.73,10.24-5.49,3.56-.59-5.88-9.59,1.32-12.5,1.39-.38,2.62-1.23,3.47-2.4,.75-1.82,.08-3.91-1.57-4.98-1.64-.99-3.53-1.46-5.44-1.37-1.18-1.43-.23-3.57,.91-5.03,1.14-1.45,2.52-3.11,2.1-4.91-.68-2.7-4.46-2.81-7.2-2.28-1.01-1.63-.98-3.66-1.48-5.54s-2.09-3.86-3.89-3.6c-1.8,.26-2.89,2.24-4.65,2.66-2.05,.48-3.83-1.33-5.43-2.69-1.61-1.36-4.41-2.21-5.52-.42-.66,1.06-.26,2.54-.96,3.6-1.19,1.8-4.03,.7-5.78-.6-1.75-1.3-4.58-2.47-5.78-.67-.31,.59-.54,1.22-.68,1.87-.17,.46-.41,.9-.71,1.3-.35-1.25-.46-2.6-.78-3.86-.49-1.87-2.09-3.86-3.89-3.6-1.8,.26-2.89,2.25-4.65,2.66-2.05,.49-3.83-1.33-5.43-2.69-1.61-1.36-4.41-2.21-5.52-.41-.66,1.06-.26,2.54-.96,3.6-.14,.24-.34,.44-.58,.59-.61-.12-1.21-.12-1.81-.12-1.18-1.42-.23-3.55,.91-5.01,1.14-1.46,2.53-3.12,2.1-4.91-.67-2.71-4.46-2.81-7.2-2.28-1.01-1.64-.98-3.67-1.48-5.54-.49-1.87-2.09-3.87-3.89-3.6-1.8,.28-2.89,2.25-4.65,2.67-2.05,.48-3.83-1.32-5.43-2.69s-4.41-2.21-5.52-.42c-.66,1.04-.26,2.54-.96,3.6-1.19,1.79-4.01,.68-5.77-.61-1.76-1.3-4.59-2.47-5.79-.67-.31,.59-.54,1.23-.68,1.88-.83,2.4-3.43,3.6-5.44,5.13s-3.61,4.59-1.91,6.46c.84,.94,2.33,1.28,2.75,2.48,.52,1.42-.98,2.79-2.18,3.81-1.57,1.74-2.03,4.22-1.2,6.42-.6,.54-1.31,.95-2.07,1.2-2.05,.48-3.83-1.33-5.43-2.69-1.61-1.36-4.41-2.21-5.52-.42-.66,1.04-.26,2.54-.96,3.6-1.19,1.8-4.01,.7-5.77-.6-1.76-1.3-4.59-2.47-5.79-.67-.31,.59-.54,1.22-.68,1.87-.83,2.4-3.43,3.6-5.44,5.13s-3.61,4.59-1.91,6.48c.8,.94,2.19,1.32,2.67,2.4-1.42-.56-3.05-.42-3.71,.64-.66,1.06-.26,2.54-.96,3.6-1.19,1.8-4.01,.7-5.77-.6-1.76-1.3-4.59-2.47-5.79-.67-.31,.59-.54,1.23-.68,1.88-.83,2.4-3.43,3.57-5.44,5.12s-3.61,4.61-1.91,6.48c.84,.92,2.33,1.28,2.75,2.48,.53,1.42-.97,2.79-2.17,3.81-1.99,1.68-2.35,6.73,.28,8.12,1.1,.58,2.75,.88,2.99,1.97,.24,1.09-.86,1.93-1.6,2.77-.17,.22-.32,.45-.45,.69-1.39,2.52-.47,5.68,2.05,7.07,.64,.29,1.4,.54,1.64,1.2,.09,.49,.04,1-.16,1.46-.25,.92-.34,1.87-.25,2.82,0,.33,.12,.64,.35,.88,.24,.17,.53,.26,.83,.24,3.79,.17,5.61-1.18,7.93,2.12,.2,.33,.47,.62,.79,.84,.32,.16,.68,.25,1.04,.25,2.6,.22,4.28-1.4,6.68-1.72,3.32-.42,4.01,1.28,6.92,2.65,4.57,2.16,6.79,.83,7.65-2.29,.23-.88,.36-1.79,.41-2.7-.02-1.37,.56-2.69,1.6-3.6h.07c2.43,.2,4.08-1.19,6.21-1.62l1.36-.14c2.53-.02,3.37,1.5,6,2.7,1.21,.64,2.54,.99,3.91,1.04,.38,1.42-1.01,2.69-2.21,3.67-1.98,1.69-2.34,6.74,.29,8.12,1.09,.58,2.75,.9,2.99,1.98,.24,1.08-.86,1.93-1.6,2.76-.17,.22-.32,.44-.45,.68-1.39,2.52-.48,5.7,2.05,7.09,.62,.3,1.4,.54,1.63,1.2,.1,.49,.05,1.01-.14,1.48-.26,.91-.35,1.86-.25,2.81,0,.33,.12,.64,.34,.89,.25,.17,.54,.25,.84,.23,3.79,.17,5.61-1.18,7.93,2.12,.2,.34,.47,.62,.79,.84,.33,.16,.68,.25,1.04,.26,2.6,.22,4.28-1.42,6.68-1.72,3.31-.42,4.01,1.28,6.91,2.65,4.58,2.15,6.8,.83,7.66-2.29,.23-.89,.36-1.8,.41-2.71,.34-5.61,5.68-4.73,10.25-5.48,.32-.03,.61-.22,.74-.52h.29c2.6,.22,4.28-1.4,6.68-1.71,3.32-.42,4.01,1.28,6.92,2.65,4.57,2.16,6.79,.83,7.65-2.29,.23-.89,.36-1.8,.41-2.71,.3-4.37,3.6-4.8,7.2-5.13,.11,1.73,1.11,3.27,2.64,4.09,.64,.29,1.4,.54,1.64,1.2,.09,.49,.04,1-.16,1.46-.25,.91-.34,1.86-.25,2.81,0,.33,.12,.64,.34,.89,.25,.17,.54,.25,.84,.24,3.79,.17,5.61-1.18,7.93,2.12,.2,.33,.47,.62,.79,.84,.32,.16,.68,.25,1.04,.25,2.6,.22,4.28-1.4,6.68-1.72,3.32-.42,4.01,1.28,6.92,2.65,4.57,2.16,6.79,.83,7.65-2.29,.23-.88,.36-1.79,.41-2.7,.34-5.62,5.7-4.73,10.25-5.49,3.56-.59-5.89-9.59,1.31-12.5,1.39-.38,2.62-1.23,3.47-2.4,.66-1.74,.06-3.71-1.46-4.79Z" style="fill:#AD8A32;"></path><path d="M597.84,258.93c-.7,.99-1.72,1.7-2.89,2.02-5.98,2.42,1.88,9.91-1.09,10.41-3.79,.63-8.26-.1-8.54,4.58-.04,.76-.15,1.51-.34,2.25-.67,2.6-2.54,3.71-6.35,1.92-2.42-1.14-3.01-2.56-5.75-2.21-1.99,.25-3.4,1.6-5.57,1.42-.3,0-.6-.08-.88-.22-.27-.18-.49-.42-.66-.7-1.93-2.74-3.45-1.62-6.6-1.76-.25,.01-.49-.06-.7-.2-.18-.2-.28-.46-.28-.74-.08-.78,0-1.58,.2-2.34,.18-.4,.22-.84,.13-1.27-.19-.56-.84-.76-1.36-1.02-.2-.11-.38-.23-.56-.37-1.89-1.47-2.24-4.2-.77-6.09,.56-.7,1.54-1.29,1.27-2.31-.27-1.02-1.61-1.17-2.54-1.65-2.18-1.14-1.88-5.36-.23-6.76,.99-.84,2.25-1.9,1.81-3.17-.36-.98-1.59-1.29-2.28-2.07-1.43-1.59-.1-4.11,1.59-5.39,1.69-1.28,3.85-2.27,4.53-4.28,.12-.54,.32-1.07,.57-1.56,1.02-1.5,3.35-.52,4.82,.56,1.47,1.08,3.82,2.03,4.82,.51,.57-.88,.24-2.13,.79-3.02,.93-1.48,3.27-.77,4.61,.36,1.33,1.13,2.82,2.64,4.52,2.23,1.47-.34,2.3-2.03,3.88-2.22,1.59-.19,2.79,1.43,3.24,2.98,.44,1.55,.42,3.25,1.27,4.62,2.27-.44,5.43-.37,5.96,1.89,.37,1.55-.8,2.87-1.74,4.09-.94,1.22-1.74,3-.76,4.19,1.6-.09,3.18,.31,4.54,1.14,1.41,.88,1.98,2.65,1.33,4.19Z" style="fill:#AD8A32;"></path><path d="M636.89,265.89c-.85,1.2-2.09,2.06-3.5,2.44-7.23,2.93,2.27,12-1.32,12.59-4.59,.77-10-.12-10.34,5.54-.05,.92-.19,1.83-.41,2.72-.81,3.15-3.07,4.49-7.68,2.32-2.93-1.38-3.64-3.1-6.96-2.67-2.41,.31-4.12,1.94-6.74,1.72-.37,0-.73-.1-1.06-.26-.32-.22-.59-.51-.8-.84-2.33-3.32-4.18-1.97-7.99-2.14-.3,.02-.6-.07-.84-.25-.22-.24-.34-.56-.34-.89-.09-.95-.01-1.91,.25-2.83,.21-.48,.27-1.02,.15-1.54-.23-.68-1.01-.92-1.64-1.23-.24-.13-.47-.28-.68-.45-2.29-1.78-2.71-5.08-.93-7.37,.68-.84,1.86-1.57,1.54-2.8-.32-1.23-1.95-1.41-3.07-2-2.64-1.38-2.27-6.48-.28-8.19,1.2-1.01,2.72-2.3,2.2-3.84-.43-1.18-1.92-1.57-2.76-2.5-1.74-1.92-.12-4.98,1.92-6.53,2.04-1.55,4.65-2.75,5.48-5.18,.15-.66,.38-1.29,.69-1.89,1.23-1.81,4.05-.63,5.84,.68,1.78,1.31,4.62,2.46,5.84,.61,.69-1.06,.29-2.58,.95-3.66,1.12-1.8,3.96-.94,5.58,.43,1.61,1.37,3.41,3.19,5.47,2.7,1.78-.41,2.78-2.46,4.7-2.69,1.92-.23,3.38,1.74,3.92,3.61,.54,1.87,.51,3.93,1.54,5.59,2.75-.54,6.57-.45,7.22,2.29,.45,1.87-.97,3.47-2.1,4.95s-2.1,3.62-.92,5.07c1.93-.1,3.85,.38,5.5,1.38,1.71,1.06,2.39,3.21,1.61,5.07Z" style="fill:#AD8A32;"></path><path d="M680.19,264.84c-.85,1.2-2.09,2.06-3.5,2.44-7.23,2.93,2.27,12-1.32,12.59-4.59,.77-10-.12-10.34,5.54-.05,.92-.19,1.83-.41,2.72-.81,3.15-3.07,4.48-7.68,2.32-2.93-1.38-3.64-3.1-6.96-2.67-2.41,.31-4.12,1.94-6.74,1.72-.37,0-.73-.1-1.06-.26-.32-.22-.59-.51-.8-.84-2.33-3.32-4.18-1.97-7.99-2.14-.3,.02-.6-.07-.84-.25-.22-.24-.34-.56-.34-.89-.09-.95-.01-1.91,.25-2.83,.21-.48,.27-1.02,.15-1.54-.23-.68-1.01-.92-1.64-1.23-.24-.13-.47-.28-.68-.45-2.29-1.78-2.71-5.08-.93-7.37,.68-.84,1.86-1.57,1.54-2.8-.32-1.23-1.95-1.41-3.07-2-2.64-1.38-2.27-6.48-.28-8.19,1.2-1.01,2.72-2.3,2.2-3.84-.43-1.18-1.92-1.57-2.76-2.5-1.74-1.92-.12-4.98,1.92-6.53,2.04-1.55,4.65-2.75,5.48-5.18,.15-.66,.38-1.29,.69-1.89,1.23-1.81,4.05-.63,5.84,.68,1.78,1.31,4.62,2.46,5.84,.61,.69-1.06,.29-2.58,.95-3.66,1.12-1.8,3.96-.94,5.58,.43,1.61,1.37,3.41,3.19,5.47,2.7,1.78-.41,2.78-2.46,4.7-2.69,1.92-.23,3.38,1.74,3.92,3.61,.54,1.87,.51,3.93,1.54,5.59,2.75-.54,6.57-.45,7.22,2.29,.45,1.87-.97,3.47-2.1,4.95-1.14,1.47-2.1,3.62-.92,5.07,1.93-.1,3.85,.38,5.5,1.38,1.71,1.06,2.39,3.21,1.61,5.07Z" style="fill:#AD8A32;"></path><path d="M653.32,238.45l-14.26,10.98,4.89-15.51,9.52-12.25-1.63-1.36-8.98,9.79-1.6-15.51h-2.6s2.14,18.43-.94,25.17c0,0-11.16,28.4-17.96,34.55-.38,.36-.72,.76-1,1.21-2.04-5.23-4.69-10.2-7.89-14.8,2.68-6.87,8.44-21.96,10.4-30.03,1.53-6.27,2.68-12.63,3.44-19.04l-2.23-.25s-6.32,29.83-16.76,43.4c-3.09-2.84-6.6-5.2-10.4-6.99-.85-4.19-1.21-11.49,1.57-22.88l-2.21-.56s-4.21,9.64-3.84,21.2c-1.57-.79-3.08-1.69-4.53-2.68-10.06-7.08-17.14-19.86-17.14-19.86l-2.06,2s8.59,18.86,20.55,25.15c11.97,6.3,19.72,21.65,20.34,25.67,.17,1.15,1.55,10.26-.36,26.23-3.99-1.7-8.56-2.34-13.89-5.2l-1.38,6.92,13.51,9.67c.64,38.92-2.3,70.09-2.19,78.85h23.77c-.59-12.09-5.59-48.21-3.37-95.71,.19-1.17,.39-2.51,.58-4.06,1.86-14.57,12.91-34.48,18.17-40.14,5.64-6.07,11.9-10.88,11.9-10.88l-1.45-3.1Z" style="fill:#263238;"></path></g></g><g id="freepik--Tree_1--inject-522"><g id="freepik--freepik--tree-1--inject-2-2--inject-522"><path d="M249.77,220.52c-1.89-1.14-4.08-1.69-6.28-1.57-1.35-1.64-.26-4.11,1.05-5.78,1.31-1.67,2.91-3.58,2.42-5.65-.77-3.11-5.14-3.23-8.28-2.62-1.16-1.88-1.13-4.21-1.7-6.38-.57-2.17-2.42-4.45-4.47-4.14-2.06,.3-3.33,2.58-5.36,3.06-2.36,.55-4.4-1.53-6.25-3.09-.23-.19-.47-.37-.72-.54h0c.39-6.47,6.54-5.44,11.79-6.32,4.1-.68-6.76-11.04,1.52-14.38,1.6-.44,3.01-1.41,3.99-2.76,.86-2.1,.1-4.51-1.81-5.73-1.89-1.14-4.07-1.69-6.27-1.57-1.35-1.64-.26-4.11,1.05-5.78,1.31-1.67,2.9-3.58,2.42-5.65-.79-3.11-5.14-3.23-8.28-2.62-1.16-1.88-1.13-4.21-1.7-6.38-.57-2.17-2.4-4.45-4.47-4.14-2.07,.3-3.33,2.58-5.36,3.06-2.36,.55-4.4-1.53-6.25-3.09-1.85-1.56-5.08-2.54-6.35-.48-.76,1.21-.3,2.93-1.1,4.14-1.37,2.07-4.64,.8-6.65-.69s-5.27-2.84-6.65-.77c-.36,.68-.62,1.4-.79,2.15-.2,.53-.47,1.04-.81,1.49-.4-1.44-.52-3-.9-4.44-.57-2.15-2.4-4.45-4.47-4.14s-3.33,2.6-5.36,3.06c-2.36,.57-4.4-1.53-6.25-3.09-1.85-1.56-5.08-2.54-6.35-.47-.76,1.21-.3,2.93-1.1,4.14-.17,.27-.39,.51-.66,.68-.7-.14-1.39-.14-2.08-.14-1.35-1.63-.26-4.09,1.05-5.77,1.31-1.68,2.91-3.59,2.42-5.65-.77-3.12-5.14-3.23-8.28-2.62-1.16-1.89-1.13-4.22-1.7-6.38-.57-2.15-2.4-4.46-4.47-4.14-2.07,.32-3.33,2.6-5.36,3.08-2.36,.55-4.4-1.52-6.25-3.09-1.85-1.57-5.08-2.54-6.35-.48-.76,1.2-.3,2.93-1.1,4.14-1.37,2.06-4.61,.79-6.64-.7-2.03-1.49-5.29-2.84-6.67-.77-.36,.68-.63,1.41-.79,2.17-.95,2.76-3.95,4.14-6.27,5.91-2.32,1.77-4.16,5.29-2.19,7.44,.97,1.08,2.68,1.48,3.16,2.86,.59,1.63-1.13,3.22-2.51,4.39-1.81,2.01-2.34,4.86-1.38,7.39-.69,.63-1.5,1.1-2.39,1.38-2.36,.55-4.4-1.53-6.25-3.09-1.85-1.56-5.08-2.54-6.35-.48-.76,1.2-.3,2.93-1.1,4.14-1.37,2.07-4.61,.8-6.64-.69-2.03-1.49-5.29-2.84-6.67-.77-.36,.68-.62,1.4-.79,2.15-.95,2.76-3.95,4.14-6.27,5.91-2.32,1.77-4.16,5.29-2.19,7.45,.92,1.08,2.53,1.52,3.08,2.76-1.63-.65-3.51-.48-4.27,.73s-.3,2.93-1.1,4.14c-1.37,2.07-4.61,.8-6.64-.69-2.03-1.49-5.29-2.84-6.67-.77-.36,.68-.63,1.41-.79,2.17-.95,2.76-3.95,4.11-6.27,5.89-2.32,1.78-4.16,5.3-2.19,7.45,.97,1.06,2.68,1.48,3.16,2.86,.61,1.63-1.12,3.22-2.5,4.39-2.29,1.93-2.71,7.74,.32,9.35,1.27,.66,3.16,1.01,3.44,2.26,.28,1.26-.99,2.22-1.84,3.19-.2,.25-.37,.52-.52,.79-1.6,2.9-.54,6.54,2.36,8.14,.73,.33,1.62,.62,1.89,1.38,.1,.57,.04,1.15-.18,1.68-.29,1.06-.39,2.15-.29,3.24,0,.37,.14,.74,.4,1.01,.28,.2,.61,.3,.95,.28,4.36,.19,6.46-1.35,9.12,2.44,.23,.38,.54,.71,.91,.97,.37,.19,.78,.29,1.2,.29,3,.25,4.93-1.62,7.69-1.97,3.82-.48,4.61,1.48,7.97,3.05,5.26,2.48,7.81,.95,8.81-2.64,.26-1.02,.42-2.06,.47-3.11-.02-1.58,.65-3.1,1.84-4.14h.08c2.8,.23,4.69-1.37,7.15-1.86l1.56-.17c2.91-.03,3.88,1.73,6.9,3.11,1.39,.73,2.93,1.14,4.5,1.2,.44,1.63-1.16,3.09-2.54,4.22-2.28,1.95-2.69,7.76,.33,9.35,1.26,.66,3.16,1.04,3.44,2.28,.28,1.24-.99,2.22-1.84,3.18-.19,.25-.37,.51-.52,.79-1.6,2.9-.55,6.56,2.35,8.16,.72,.35,1.62,.62,1.88,1.38,.12,.57,.06,1.16-.17,1.7-.3,1.05-.4,2.14-.29,3.23,0,.38,.13,.74,.39,1.02,.28,.19,.62,.28,.97,.26,4.36,.19,6.46-1.35,9.12,2.44,.23,.39,.54,.72,.91,.97,.37,.18,.78,.29,1.2,.3,3,.25,4.93-1.63,7.69-1.97,3.81-.48,4.61,1.48,7.95,3.05,5.27,2.47,7.83,.95,8.82-2.64,.26-1.02,.42-2.07,.47-3.12,.39-6.46,6.54-5.44,11.8-6.31,.37-.03,.7-.26,.86-.59h.33c3,.25,4.93-1.62,7.69-1.97,3.82-.48,4.61,1.48,7.97,3.05,5.26,2.48,7.81,.95,8.81-2.64,.26-1.02,.42-2.07,.47-3.12,.35-5.02,4.14-5.52,8.28-5.91,.13,1.99,1.28,3.77,3.04,4.71,.73,.33,1.62,.62,1.89,1.38,.1,.57,.04,1.15-.18,1.68-.29,1.05-.39,2.14-.29,3.23,0,.38,.13,.74,.39,1.02,.29,.19,.62,.29,.97,.28,4.36,.19,6.46-1.35,9.12,2.44,.23,.38,.54,.71,.91,.97,.37,.19,.78,.29,1.2,.29,3,.25,4.93-1.62,7.69-1.97,3.82-.48,4.61,1.48,7.97,3.05,5.26,2.48,7.81,.95,8.81-2.64,.26-1.02,.42-2.06,.47-3.11,.39-6.47,6.56-5.44,11.8-6.32,4.1-.68-6.78-11.04,1.5-14.38,1.6-.44,3.01-1.41,3.99-2.76,.76-2.01,.07-4.27-1.68-5.51Z" style="fill:#AD8A32;"></path><path d="M116.64,240.24c-.81,1.14-1.98,1.96-3.33,2.32-6.88,2.79,2.16,11.41-1.26,11.98-4.37,.73-9.51-.12-9.83,5.27-.05,.87-.18,1.74-.39,2.59-.77,2.99-2.92,4.27-7.3,2.21-2.79-1.31-3.46-2.95-6.62-2.54-2.29,.29-3.92,1.84-6.41,1.64-.35,0-.69-.09-1.01-.25-.31-.21-.57-.49-.76-.8-2.22-3.16-3.97-1.87-7.6-2.03-.29,.02-.57-.07-.8-.23-.21-.23-.33-.53-.32-.85-.09-.9-.01-1.81,.23-2.69,.2-.46,.25-.97,.15-1.46-.22-.64-.96-.88-1.56-1.17-.23-.13-.44-.27-.65-.43-2.18-1.69-2.58-4.83-.89-7.01,.64-.8,1.77-1.49,1.46-2.66s-1.86-1.34-2.92-1.9c-2.51-1.31-2.16-6.16-.26-7.79,1.14-.96,2.59-2.19,2.09-3.65-.41-1.12-1.83-1.49-2.63-2.38-1.65-1.83-.12-4.73,1.83-6.21,1.94-1.48,4.43-2.61,5.22-4.92,.14-.62,.36-1.23,.66-1.8,1.17-1.72,3.86-.6,5.55,.64,1.69,1.24,4.4,2.34,5.55,.58,.66-1.01,.28-2.45,.91-3.48,1.07-1.71,3.77-.89,5.3,.41,1.53,1.3,3.24,3.04,5.2,2.57,1.69-.39,2.64-2.34,4.47-2.56s3.21,1.65,3.73,3.43,.48,3.74,1.46,5.32c2.61-.51,6.25-.42,6.87,2.18,.42,1.78-.92,3.3-2,4.7-1.08,1.4-2,3.45-.88,4.82,1.84-.1,3.66,.36,5.23,1.31,1.63,1.01,2.28,3.06,1.53,4.82Z" style="fill:#AD8A32;"></path><path d="M161.59,248.25c-.98,1.38-2.4,2.37-4.03,2.81-8.33,3.38,2.62,13.81-1.52,14.5-5.29,.88-11.51-.14-11.9,6.38-.05,1.06-.21,2.1-.48,3.13-.94,3.62-3.54,5.16-8.84,2.67-3.38-1.59-4.19-3.57-8.01-3.08-2.78,.35-4.74,2.23-7.76,1.98-.42,0-.84-.11-1.22-.3-.37-.26-.68-.59-.92-.97-2.69-3.82-4.81-2.26-9.19-2.46-.35,.02-.69-.08-.97-.28-.26-.28-.4-.65-.39-1.03-.11-1.09-.01-2.2,.28-3.25,.25-.56,.31-1.17,.18-1.77-.27-.78-1.17-1.06-1.89-1.41-.27-.15-.54-.32-.78-.52-2.64-2.05-3.12-5.84-1.07-8.48,.78-.97,2.14-1.8,1.77-3.22-.37-1.41-2.25-1.63-3.54-2.3-3.04-1.59-2.62-7.46-.32-9.42,1.38-1.17,3.13-2.65,2.53-4.42-.49-1.36-2.21-1.8-3.18-2.88-2-2.21-.14-5.73,2.21-7.51,2.35-1.79,5.36-3.16,6.31-5.96,.17-.76,.44-1.49,.8-2.17,1.41-2.09,4.67-.72,6.72,.78,2.05,1.5,5.32,2.83,6.72,.71,.8-1.22,.34-2.97,1.1-4.21,1.29-2.07,4.56-1.08,6.42,.5,1.86,1.57,3.92,3.68,6.29,3.11,2.05-.48,3.2-2.83,5.41-3.09,2.21-.27,3.89,2,4.51,4.15s.58,4.53,1.77,6.44c3.16-.62,7.57-.51,8.31,2.63,.51,2.16-1.11,4-2.42,5.69s-2.42,4.17-1.06,5.83c2.22-.12,4.43,.43,6.33,1.59,1.97,1.23,2.75,3.7,1.86,5.83Z" style="fill:#AD8A32;"></path><path d="M211.43,247.04c-.98,1.38-2.4,2.37-4.03,2.81-8.33,3.38,2.62,13.81-1.52,14.5-5.29,.88-11.51-.14-11.9,6.38-.05,1.06-.21,2.1-.48,3.13-.94,3.62-3.54,5.16-8.84,2.67-3.38-1.59-4.19-3.57-8.01-3.08-2.78,.35-4.74,2.23-7.76,1.98-.42,0-.84-.11-1.22-.3-.37-.26-.68-.59-.92-.97-2.69-3.82-4.81-2.26-9.19-2.46-.35,.02-.69-.08-.97-.28-.26-.28-.4-.65-.39-1.03-.11-1.09-.01-2.2,.28-3.25,.25-.56,.31-1.17,.18-1.77-.27-.78-1.17-1.06-1.89-1.41-.27-.15-.54-.32-.78-.52-2.64-2.05-3.12-5.84-1.07-8.48,.78-.97,2.14-1.8,1.77-3.22-.37-1.41-2.25-1.63-3.54-2.3-3.04-1.59-2.62-7.46-.32-9.42,1.38-1.17,3.13-2.65,2.53-4.42-.5-1.36-2.21-1.8-3.18-2.88-2-2.21-.14-5.73,2.21-7.51,2.35-1.79,5.36-3.16,6.31-5.96,.17-.76,.44-1.49,.8-2.17,1.41-2.09,4.67-.72,6.72,.78,2.05,1.5,5.32,2.83,6.72,.71,.8-1.22,.34-2.97,1.1-4.21,1.29-2.07,4.56-1.08,6.42,.5,1.86,1.57,3.92,3.68,6.29,3.11,2.05-.48,3.2-2.83,5.41-3.09,2.21-.27,3.89,2,4.51,4.15s.58,4.53,1.77,6.44c3.16-.62,7.57-.51,8.31,2.63,.51,2.16-1.11,4-2.42,5.69s-2.42,4.17-1.06,5.83c2.22-.12,4.43,.43,6.33,1.59,1.97,1.23,2.75,3.7,1.86,5.83Z" style="fill:#AD8A32;"></path><path d="M180.5,216.67l-16.41,12.64,5.63-17.85,10.96-14.1-1.87-1.56-10.34,11.27-1.84-17.85h-2.99s2.46,21.21-1.08,28.98c0,0-12.85,32.69-20.67,39.77-.44,.41-.83,.88-1.15,1.39-2.35-6.02-5.4-11.74-9.09-17.04,3.09-7.9,9.72-25.27,11.97-34.57,1.77-7.22,3.09-14.54,3.96-21.92l-2.56-.28s-7.27,34.33-19.29,49.96c-3.56-3.27-7.6-5.98-11.97-8.04-.98-4.82-1.39-13.22,1.8-26.33l-2.54-.65s-4.85,11.09-4.42,24.41c-1.81-.91-3.55-1.94-5.22-3.09-11.58-8.15-19.73-22.86-19.73-22.86l-2.37,2.31s9.88,21.7,23.66,28.95c13.77,7.25,22.7,24.92,23.41,29.55,.2,1.32,1.79,11.81-.42,30.19-4.59-1.96-9.85-2.69-15.99-5.98l-1.58,7.97,15.55,11.13c.74,44.8-2.65,80.68-2.52,90.77h27.36c-.67-13.91-6.44-55.49-3.88-110.17,.22-1.34,.45-2.88,.67-4.68,2.14-16.77,14.87-39.69,20.92-46.21,6.49-6.98,13.7-12.52,13.7-12.52l-1.66-3.57Z" style="fill:#263238;"></path></g></g><g id="freepik--Bridge--inject-522"><g><path d="M194.55,392.32v-58.05s123.16-72.52,179.78-77.14c56.62-4.63,127.42,48.37,148.65,58.29,21.24,9.92,38.29,18.67,39.94,17.52,1.65-1.14,.73,59.38,.73,59.38l-88.56,.33,5.56-8.44s-32.71-83.13-105.5-80.51c-72.79,2.62-90.7,88.63-90.7,88.63h-89.91Z" style="fill:#AD8A32;"></path><path d="M192.96,337.33c28.14-5.3,53.27-20.11,77.32-34.96,12.25-7.57,24.44-15.26,37.18-21.98,12.61-6.65,24.68-11.97,38.65-15.46,7.1-1.78,12.77-2.7,19.75-3.06,3.43-.18,6.88-.13,10.32-.13s6.8,0,10.2,0c1.99,0,3.97,.03,5.96,.13,1.75,.09,3.5,.23,5.24,.4,.87,.09,1.74,.19,2.6,.3-.71-.09,1.32,.2,1.65,.25,7.03,1.11,13.95,2.9,20.69,5.16,6.91,2.32,12.52,4.68,18.91,7.72,13.06,6.22,25.47,13.66,37.76,21.26,24.03,14.86,48.37,30.53,75.9,38.04,3.35,.92,6.74,1.69,10.16,2.33,3.07,.58,6.62-.85,7.38-4.19,.67-2.95-.89-6.76-4.19-7.38-6.94-1.31-13.74-3.19-20.39-5.56-6.75-2.4-12.12-4.76-18.69-8.01-12.68-6.26-24.77-13.63-36.79-21.07-24.61-15.22-49.78-31.13-78.24-38.02-10.66-2.58-21.39-3.38-32.3-3.38-9.36,0-18.57-.02-27.87,1.36-28.88,4.31-55.03,19.36-79.51,34.46-12.14,7.49-24.19,15.14-36.74,21.94-12.55,6.81-24.26,12.19-37.99,15.93-3.35,.92-6.74,1.69-10.16,2.33-3.09,.58-5.13,4.47-4.19,7.38,1.07,3.3,4.07,4.81,7.38,4.19h0Z" style="fill:#AD8A32;"></path><g style="opacity:.2;"><path d="M192.96,337.33c28.14-5.3,53.27-20.11,77.32-34.96,12.25-7.57,24.44-15.26,37.18-21.98,12.61-6.65,24.68-11.97,38.65-15.46,7.1-1.78,12.77-2.7,19.75-3.06,3.43-.18,6.88-.13,10.32-.13s6.8,0,10.2,0c1.99,0,3.97,.03,5.96,.13,1.75,.09,3.5,.23,5.24,.4,.87,.09,1.74,.19,2.6,.3-.71-.09,1.32,.2,1.65,.25,7.03,1.11,13.95,2.9,20.69,5.16,6.91,2.32,12.52,4.68,18.91,7.72,13.06,6.22,25.47,13.66,37.76,21.26,24.03,14.86,48.37,30.53,75.9,38.04,3.35,.92,6.74,1.69,10.16,2.33,3.07,.58,6.62-.85,7.38-4.19,.67-2.95-.89-6.76-4.19-7.38-6.94-1.31-13.74-3.19-20.39-5.56-6.75-2.4-12.12-4.76-18.69-8.01-12.68-6.26-24.77-13.63-36.79-21.07-24.61-15.22-49.78-31.13-78.24-38.02-10.66-2.58-21.39-3.38-32.3-3.38-9.36,0-18.57-.02-27.87,1.36-28.88,4.31-55.03,19.36-79.51,34.46-12.14,7.49-24.19,15.14-36.74,21.94-12.55,6.81-24.26,12.19-37.99,15.93-3.35,.92-6.74,1.69-10.16,2.33-3.09,.58-5.13,4.47-4.19,7.38,1.07,3.3,4.07,4.81,7.38,4.19h0Z"></path></g><g><g><path d="M320.78,338.42c-4.11-5.74-8.23-11.48-12.34-17.21-1.36-1.9-2.96-3.95-5.26-4.35-2.17-.38-4.28,.86-6.06,2.16-4.78,3.51-8.88,7.95-12.01,12.99-.71,1.15-1.4,2.48-1.11,3.8,.25,1.1,1.12,1.94,1.96,2.7,5.02,4.59,10.04,9.18,15.06,13.77,.83,.76,1.72,1.55,2.82,1.81,1.63,.38,3.26-.5,4.7-1.34,0,0,6.44-7.75,9.47-9.87,3.02-2.12,2.78-4.46,2.78-4.46Z" style="fill:#AD8A32;"></path><path d="M336.82,330.16c2.59-1.14,3.69-4.25,2.54-6.84l-7.35-16.71c-.94-2.14-2.08-4.48-4.25-5.34-2.05-.82-4.37-.05-6.38,.86-5.4,2.45-10.33,5.94-14.43,10.24-.94,.98-1.88,2.14-1.87,3.49,.01,1.13,.7,2.13,1.36,3.05,3.96,5.53,7.93,11.05,11.89,16.58,.66,.92,1.36,1.87,2.38,2.35,.76,.35,1.58,.4,2.41,.29,1.35-.17,2.62-.76,3.72-1.57,2.33-1.71,7.31-5.27,9.86-6.36,.03-.01,.07-.03,.1-.04Z" style="fill:#AD8A32;"></path><path d="M358.05,321.36c2.78-.55,4.52-3.34,3.98-6.12l-3.52-17.91c-.45-2.29-1.05-4.82-2.98-6.14-1.82-1.24-4.25-1-6.41-.55-5.81,1.21-11.38,3.54-16.32,6.83-1.13,.75-2.3,1.67-2.58,3-.23,1.11,.22,2.23,.66,3.27,2.66,6.26,5.32,12.52,7.98,18.78,.44,1.04,.92,2.13,1.81,2.82,.66,.51,1.45,.74,2.29,.81,1.36,.13,2.72-.17,3.97-.71,2.65-1.16,8.29-3.55,11.01-4.05,.04,0,.07-.01,.11-.02Z" style="fill:#AD8A32;"></path><path d="M410.29,325.53c3.4-6.19,6.8-12.37,10.2-18.56,1.13-2.05,2.29-4.37,1.65-6.62-.6-2.12-2.62-3.49-4.57-4.53-5.23-2.8-11-4.58-16.9-5.23-1.35-.15-2.84-.19-3.91,.64-.89,.7-1.26,1.85-1.59,2.93-1.97,6.51-3.95,13.02-5.92,19.52-.33,1.08-.66,2.22-.41,3.32,.36,1.63,1.85,2.72,3.24,3.66,0,0,9.77,2.47,12.99,4.28,3.21,1.81,5.23,.58,5.23,.58Z" style="fill:#AD8A32;"></path><path d="M425.36,335.85c2.15,1.84,5.42,1.49,7.27-.66l11.91-13.84c1.52-1.77,3.14-3.81,2.99-6.14-.15-2.2-1.84-3.96-3.53-5.38-4.54-3.82-9.82-6.76-15.46-8.6-1.29-.42-2.74-.78-3.95-.18-1.01,.5-1.62,1.55-2.16,2.54-3.27,5.96-6.55,11.92-9.82,17.88-.54,.99-1.1,2.04-1.09,3.17,0,.84,.32,1.6,.78,2.3,.74,1.15,1.81,2.04,3.02,2.68,2.55,1.36,7.91,4.32,9.99,6.15,.03,.02,.06,.05,.08,.07Z" style="fill:#AD8A32;"></path><path d="M442.56,350.81c1.7,2.27,4.96,2.64,7.24,.95l14.64-10.9c1.88-1.4,3.9-3.03,4.26-5.34,.34-2.18-.93-4.27-2.27-6.02-3.6-4.72-8.11-8.74-13.21-11.77-1.16-.69-2.5-1.36-3.82-1.04-1.1,.27-1.92,1.16-2.67,2.01-4.5,5.1-9,10.2-13.49,15.3-.75,.85-1.52,1.75-1.76,2.85-.17,.82-.04,1.63,.25,2.41,.47,1.28,1.33,2.38,2.36,3.28,2.19,1.89,6.77,5.95,8.4,8.19,.02,.03,.04,.06,.07,.09Z" style="fill:#AD8A32;"></path><path d="M457.09,368.07c1.15,2.59,4.25,3.68,6.84,2.54l16.71-7.36c2.14-.94,4.48-2.08,5.34-4.25,.82-2.05,.04-4.37-.87-6.38-2.45-5.4-5.95-10.33-10.24-14.43-.98-.94-2.14-1.88-3.49-1.86-1.13,.01-2.13,.7-3.05,1.36-5.52,3.97-11.05,7.93-16.57,11.9-.92,.66-1.87,1.36-2.35,2.39-.35,.76-.4,1.58-.29,2.41,.18,1.35,.76,2.62,1.57,3.72,1.71,2.33,5.28,7.31,6.36,9.86,.01,.03,.03,.07,.04,.1Z" style="fill:#AD8A32;"></path><path d="M301.43,359.59c1.94-2.06,1.74-5.35-.32-7.29l-13.28-12.53c-1.7-1.6-3.66-3.31-6-3.27-2.21,.05-4.04,1.66-5.54,3.28-4.02,4.36-7.2,9.5-9.3,15.05-.48,1.27-.9,2.7-.36,3.94,.45,1.04,1.47,1.69,2.44,2.28,5.8,3.55,11.61,7.09,17.41,10.64,.96,.59,1.98,1.2,3.11,1.24,.83,.03,1.61-.25,2.33-.67,1.18-.69,2.12-1.72,2.82-2.89,1.48-2.48,4.68-7.7,6.6-9.69,.03-.03,.05-.05,.08-.08Z" style="fill:#AD8A32;"></path><path d="M291.9,376.3c1.14-2.59-.15-5.62-2.74-6.76l-16.71-7.36c-2.14-.94-4.56-1.9-6.74-1.07-2.06,.78-3.25,2.92-4.12,4.94-2.33,5.46-3.6,11.36-3.73,17.3-.03,1.35,.05,2.85,.98,3.84,.77,.82,1.95,1.1,3.06,1.33,6.66,1.4,13.31,2.79,19.97,4.19,1.11,.23,2.27,.46,3.35,.12,.8-.25,1.43-.77,1.98-1.41,.88-1.04,1.42-2.33,1.69-3.67,.56-2.83,1.83-8.83,2.98-11.35,.02-.03,.03-.07,.04-.1Z" style="fill:#AD8A32;"></path><path d="M463.11,376.37c-1.14-2.59,.15-5.62,2.74-6.76l16.71-7.36c2.14-.94,4.56-1.9,6.74-1.07,2.06,.78,3.25,2.92,4.12,4.94,2.33,5.46,3.6,11.36,3.73,17.3,.03,1.35-.05,2.85-.98,3.84-.77,.82-1.95,1.1-3.06,1.33-6.66,1.4-13.31,2.79-19.97,4.19-1.11,.23-2.27,.46-3.35,.12-.8-.25-1.43-.77-1.97-1.41-.88-1.04-1.42-2.33-1.69-3.67-.56-2.83-1.83-8.83-2.98-11.35-.02-.03-.03-.07-.04-.1Z" style="fill:#AD8A32;"></path><path d="M361.98,289.16c-1.9,.01-3.43,1.75-3.86,3.6-.43,1.85-.03,3.78,.38,5.63,1.09,4.98,2.18,9.96,3.27,14.95,.39,1.78,.89,3.74,2.4,4.76,1.24,.84,2.84,.82,4.33,.78,4.44-.13,8.87-.26,13.31-.4,1.63-.05,3.36-.13,4.71-1.03,1.59-1.06,2.31-3.01,2.92-4.83,1.55-4.6,3.11-9.21,4.66-13.81,.8-2.38,1.58-5.14,.27-7.29-1.31-2.15-4.12-2.74-6.62-3.06-8.62-1.09-17.34-1.36-26.01-.8" style="fill:#AD8A32;"></path></g><g style="opacity:.2;"><path d="M320.78,338.42c-4.11-5.74-8.23-11.48-12.34-17.21-1.36-1.9-2.96-3.95-5.26-4.35-2.17-.38-4.28,.86-6.06,2.16-4.78,3.51-8.88,7.95-12.01,12.99-.71,1.15-1.4,2.48-1.11,3.8,.25,1.1,1.12,1.94,1.96,2.7,5.02,4.59,10.04,9.18,15.06,13.77,.83,.76,1.72,1.55,2.82,1.81,1.63,.38,3.26-.5,4.7-1.34,0,0,6.44-7.75,9.47-9.87,3.02-2.12,2.78-4.46,2.78-4.46Z"></path><path d="M336.82,330.16c2.59-1.14,3.69-4.25,2.54-6.84l-7.35-16.71c-.94-2.14-2.08-4.48-4.25-5.34-2.05-.82-4.37-.05-6.38,.86-5.4,2.45-10.33,5.94-14.43,10.24-.94,.98-1.88,2.14-1.87,3.49,.01,1.13,.7,2.13,1.36,3.05,3.96,5.53,7.93,11.05,11.89,16.58,.66,.92,1.36,1.87,2.38,2.35,.76,.35,1.58,.4,2.41,.29,1.35-.17,2.62-.76,3.72-1.57,2.33-1.71,7.31-5.27,9.86-6.36,.03-.01,.07-.03,.1-.04Z"></path><path d="M358.05,321.36c2.78-.55,4.52-3.34,3.98-6.12l-3.52-17.91c-.45-2.29-1.05-4.82-2.98-6.14-1.82-1.24-4.25-1-6.41-.55-5.81,1.21-11.38,3.54-16.32,6.83-1.13,.75-2.3,1.67-2.58,3-.23,1.11,.22,2.23,.66,3.27,2.66,6.26,5.32,12.52,7.98,18.78,.44,1.04,.92,2.13,1.81,2.82,.66,.51,1.45,.74,2.29,.81,1.36,.13,2.72-.17,3.97-.71,2.65-1.16,8.29-3.55,11.01-4.05,.04,0,.07-.01,.11-.02Z"></path><path d="M410.29,325.53c3.4-6.19,6.8-12.37,10.2-18.56,1.13-2.05,2.29-4.37,1.65-6.62-.6-2.12-2.62-3.49-4.57-4.53-5.23-2.8-11-4.58-16.9-5.23-1.35-.15-2.84-.19-3.91,.64-.89,.7-1.26,1.85-1.59,2.93-1.97,6.51-3.95,13.02-5.92,19.52-.33,1.08-.66,2.22-.41,3.32,.36,1.63,1.85,2.72,3.24,3.66,0,0,9.77,2.47,12.99,4.28,3.21,1.81,5.23,.58,5.23,.58Z"></path><path d="M425.36,335.85c2.15,1.84,5.42,1.49,7.27-.66l11.91-13.84c1.52-1.77,3.14-3.81,2.99-6.14-.15-2.2-1.84-3.96-3.53-5.38-4.54-3.82-9.82-6.76-15.46-8.6-1.29-.42-2.74-.78-3.95-.18-1.01,.5-1.62,1.55-2.16,2.54-3.27,5.96-6.55,11.92-9.82,17.88-.54,.99-1.1,2.04-1.09,3.17,0,.84,.32,1.6,.78,2.3,.74,1.15,1.81,2.04,3.02,2.68,2.55,1.36,7.91,4.32,9.99,6.15,.03,.02,.06,.05,.08,.07Z"></path><path d="M442.56,350.81c1.7,2.27,4.96,2.64,7.24,.95l14.64-10.9c1.88-1.4,3.9-3.03,4.26-5.34,.34-2.18-.93-4.27-2.27-6.02-3.6-4.72-8.11-8.74-13.21-11.77-1.16-.69-2.5-1.36-3.82-1.04-1.1,.27-1.92,1.16-2.67,2.01-4.5,5.1-9,10.2-13.49,15.3-.75,.85-1.52,1.75-1.76,2.85-.17,.82-.04,1.63,.25,2.41,.47,1.28,1.33,2.38,2.36,3.28,2.19,1.89,6.77,5.95,8.4,8.19,.02,.03,.04,.06,.07,.09Z"></path><path d="M457.09,368.07c1.15,2.59,4.25,3.68,6.84,2.54l16.71-7.36c2.14-.94,4.48-2.08,5.34-4.25,.82-2.05,.04-4.37-.87-6.38-2.45-5.4-5.95-10.33-10.24-14.43-.98-.94-2.14-1.88-3.49-1.86-1.13,.01-2.13,.7-3.05,1.36-5.52,3.97-11.05,7.93-16.57,11.9-.92,.66-1.87,1.36-2.35,2.39-.35,.76-.4,1.58-.29,2.41,.18,1.35,.76,2.62,1.57,3.72,1.71,2.33,5.28,7.31,6.36,9.86,.01,.03,.03,.07,.04,.1Z"></path><path d="M301.43,359.59c1.94-2.06,1.74-5.35-.32-7.29l-13.28-12.53c-1.7-1.6-3.66-3.31-6-3.27-2.21,.05-4.04,1.66-5.54,3.28-4.02,4.36-7.2,9.5-9.3,15.05-.48,1.27-.9,2.7-.36,3.94,.45,1.04,1.47,1.69,2.44,2.28,5.8,3.55,11.61,7.09,17.41,10.64,.96,.59,1.98,1.2,3.11,1.24,.83,.03,1.61-.25,2.33-.67,1.18-.69,2.12-1.72,2.82-2.89,1.48-2.48,4.68-7.7,6.6-9.69,.03-.03,.05-.05,.08-.08Z"></path><path d="M291.9,376.3c1.14-2.59-.15-5.62-2.74-6.76l-16.71-7.36c-2.14-.94-4.56-1.9-6.74-1.07-2.06,.78-3.25,2.92-4.12,4.94-2.33,5.46-3.6,11.36-3.73,17.3-.03,1.35,.05,2.85,.98,3.84,.77,.82,1.95,1.1,3.06,1.33,6.66,1.4,13.31,2.79,19.97,4.19,1.11,.23,2.27,.46,3.35,.12,.8-.25,1.43-.77,1.98-1.41,.88-1.04,1.42-2.33,1.69-3.67,.56-2.83,1.83-8.83,2.98-11.35,.02-.03,.03-.07,.04-.1Z"></path><path d="M463.11,376.37c-1.14-2.59,.15-5.62,2.74-6.76l16.71-7.36c2.14-.94,4.56-1.9,6.74-1.07,2.06,.78,3.25,2.92,4.12,4.94,2.33,5.46,3.6,11.36,3.73,17.3,.03,1.35-.05,2.85-.98,3.84-.77,.82-1.95,1.1-3.06,1.33-6.66,1.4-13.31,2.79-19.97,4.19-1.11,.23-2.27,.46-3.35,.12-.8-.25-1.43-.77-1.97-1.41-.88-1.04-1.42-2.33-1.69-3.67-.56-2.83-1.83-8.83-2.98-11.35-.02-.03-.03-.07-.04-.1Z"></path><path d="M361.98,289.16c-1.9,.01-3.43,1.75-3.86,3.6-.43,1.85-.03,3.78,.38,5.63,1.09,4.98,2.18,9.96,3.27,14.95,.39,1.78,.89,3.74,2.4,4.76,1.24,.84,2.84,.82,4.33,.78,4.44-.13,8.87-.26,13.31-.4,1.63-.05,3.36-.13,4.71-1.03,1.59-1.06,2.31-3.01,2.92-4.83,1.55-4.6,3.11-9.21,4.66-13.81,.8-2.38,1.58-5.14,.27-7.29-1.31-2.15-4.12-2.74-6.62-3.06-8.62-1.09-17.34-1.36-26.01-.8"></path></g><path d="M267.96,361.14c8.56,2.18,16.88,5.58,24.52,10.02-7.96-3.1-16.67-6.67-24.52-10.02h0Z" style="fill:#263238;"></path><path d="M284.46,336.5c6.99,5.41,13.26,11.85,18.5,18.96-6.06-6.01-12.63-12.76-18.5-18.96h0Z" style="fill:#263238;"></path><path d="M305.37,316.96c6.22,6.27,11.6,13.48,15.87,21.21-5.23-6.75-10.86-14.3-15.87-21.21h0Z" style="fill:#263238;"></path><path d="M331.21,302.85c3.86,6.56,6.73,13.7,8.46,21.1-3.05-6.98-5.84-13.95-8.46-21.1h0Z" style="fill:#263238;"></path><path d="M357.1,293.3c2.78,7.08,4.48,14.59,5.03,22.17-1.91-7.37-3.57-14.7-5.03-22.17h0Z" style="fill:#263238;"></path><path d="M394.62,292.91c-.73,7.57-2.6,15.04-5.55,22.05,1.63-7.44,3.47-14.72,5.55-22.05h0Z" style="fill:#263238;"></path><path d="M422.33,303.06c-2.1,7.31-5.3,14.31-9.48,20.67,2.96-7.02,6.1-13.84,9.48-20.67h0Z" style="fill:#263238;"></path><path d="M447.53,318.09c-4.13,6.39-9.23,12.15-15.07,17.02,4.87-5.85,9.86-11.48,15.07-17.02h0Z" style="fill:#263238;"></path><path d="M467.69,338.4c-5.45,5.31-11.7,9.79-18.49,13.24,6.05-4.62,12.16-8.99,18.49-13.24h0Z" style="fill:#263238;"></path><path d="M485.71,360.86c-6.37,4.17-13.36,7.37-20.68,9.46,6.82-3.38,13.66-6.5,20.68-9.46h0Z" style="fill:#263238;"></path></g><path d="M228.83,312.22c2.78,2.81,5,6.01,6.65,9.6-2.78-2.8-5-6.01-6.65-9.6h0Z" style="opacity:.1;"></path><path d="M268.51,289.98c2.78,2.81,5,6.01,6.65,9.6-2.78-2.8-5-6.01-6.65-9.6h0Z" style="opacity:.1;"></path><path d="M463.7,273.9c-1.14,3.78-2.89,7.27-5.25,10.43,1.13-3.78,2.89-7.27,5.25-10.43h0Z" style="opacity:.1;"></path><path d="M491.85,290.5c-1.14,3.78-2.89,7.27-5.25,10.43,1.13-3.78,2.89-7.27,5.25-10.43h0Z" style="opacity:.1;"></path><path d="M519.73,307c-1.14,3.78-2.89,7.27-5.25,10.43,1.13-3.78,2.89-7.27,5.25-10.43h0Z" style="opacity:.1;"></path><path d="M307.66,266.88c2.78,2.81,5,6.01,6.65,9.6-2.78-2.8-5-6.01-6.65-9.6h0Z" style="opacity:.1;"></path><path d="M349.16,251.95l3.9,11.42s-2.45-9.13-1.2-10.62c1.25-1.5,2.3-1.66,2.3-1.66l-5,.86Z" style="opacity:.1;"></path><path d="M393.87,261.79l-.55-12.06s-.2,9.45-1.82,10.53c-1.62,1.09-2.67,.95-2.67,.95l5.04,.57Z" style="opacity:.1;"></path><path d="M429.78,270.3l2.45-11.82s-2.53,9.1-4.37,9.75c-1.84,.65-2.82,.26-2.82,.26l4.75,1.81Z" style="opacity:.1;"></path><g><g style="opacity:.1;"><path d="M296.81,306.09c-.38-1.56-1.68-2.73-3.27-2.91-1.18-.13-2.63,.02-4.12,.89-3.56,2.09-9.83,16.11-8.58,17.58,1.26,1.46,5.28,2.3,7.66,1.67,1.77-.47,6.73-4.63,9.16-6.74,.85-.74,1.22-1.89,.96-2.99l-1.81-7.51Z"></path><path d="M280.68,323.53c-3.39-.84-9.67-3.14-12.18-2.09-2.51,1.05-3.14,7.53-2.51,10.25,.63,2.72,2.72,8.16,5.65,8.37,2.93,.21,12.55-9.62,12.76-11.09,.21-1.46-3.72-5.44-3.72-5.44Z"></path><path d="M284.41,296.12c-.21-.04-16.75,10.67-16.75,10.67-.63,1.46-.63,7.11,1.67,9.42,2.3,2.3,3.34,3.98,5.75,3.14,2.41-.84,7.43-9.42,8.48-13.6,1.05-4.18,3.48-9.1,.85-9.62Z"></path><path d="M254.48,313.34s-5.44,7.06-4.18,10.2,5.02,5.65,7.74,5.86c2.72,.21,7.72-9.82,7.72-9.82,0,0-1.03-6.08-2.91-7.96-1.88-1.88-8.37,1.73-8.37,1.73Z"></path></g><g style="opacity:.1;"><path d="M365.21,278.53c.27-1.06-.14-2.19-1.05-2.8-.67-.46-1.6-.83-2.77-.78-2.82,.13-11.1,6.59-10.81,7.87,.29,1.29,2.45,3.08,4.09,3.46,1.22,.28,5.55-.64,7.69-1.14,.75-.17,1.34-.75,1.53-1.5l1.31-5.12Z"></path><path d="M347.63,284.2c-1.78-1.59-4.84-4.99-6.69-5.16-1.85-.17-4.31,3.55-4.8,5.39-.49,1.84-.97,5.8,.73,6.86,1.7,1.06,10.67-1.8,11.26-2.61,.6-.82-.51-4.48-.51-4.48Z"></path><path d="M361.82,265.65c-.14-.1-15.57,2.35-15.57,2.35-.93,.86-2.74,4.96-1.82,7.36,.93,2.41,1.14,3.96,3.16,4.12,2.02,.17,8.42-4.43,10.52-7.13,2.1-2.7,5.45-5.48,3.71-6.71Z"></path><path d="M335.06,269.66s-5.55,2.52-5.79,4.82c-.25,2.3,1.23,5.02,2.8,6.02,1.58,1,7.81-3.46,7.81-3.46,0,0,1.32-4,.79-5.74-.54-1.74-5.61-1.63-5.61-1.63Z"></path></g><path d="M266.38,344.7c.32-.61-.66-7.1-1.3-7.23-.64-.13-8.82-3.2-8.82-3.2,0,0-7.16,5.2-8.59,6.59-1.43,1.39-1.23,9.16,0,10.59s3.57,9.32,6.26,9.35c4.73,.04,6.6-2.85,8.44-2.99,1.84-.14,4-13.11,4-13.11Z" style="opacity:.1;"></path><path d="M243.51,349.5c-2.1-3.11-5.91-4.6-9.56-3.74-2.29,.54-4.49,1.11-5.12,1.39-1.4,.61-4.05,7.03-4.05,7.03l-1.64,3.89c-1.47,3.51-.6,7.56,2.19,10.15l3.34,3.1c1.14,1.06,2.53,1.81,4.05,2.17,2.52,.6,6.32,1.46,7.39,1.46,.27,0,.64-.07,1.05-.2,3.33-.98,5.72-3.91,6.21-7.34l.51-3.53c.13-.93,.12-1.87-.04-2.8l-.84-4.97c-.22-1.28-.71-2.5-1.43-3.57l-2.07-3.05Z" style="opacity:.1;"></path><path d="M221.2,391.01l4.62-12.77s13.08-1.34,14.36-1.34c.75,0,4.49,.58,7.47,1.05,2.33,.37,4.31,2.38,5.18,5.24,.97,3.2,2.21,7.02,2.77,7.82,1.01,1.42-34.4,0-34.4,0Z" style="opacity:.1;"></path><path d="M214.2,384.08c1.9-.78,4.63-1.87,6.45-2.59,1.23-.48,2.15-1.52,2.5-2.79l1.27-4.65c.33-1.21,.1-2.5-.62-3.53l-3.74-5.27c-.42-.59-.98-1.06-1.63-1.37l-4.31-2.03c-1.28-.6-2.78-.52-3.98,.23l-6.06,3.74c-1.03,.63-1.73,1.68-1.93,2.88l-.9,5.42c-.26,1.55,.37,3.11,1.63,4.05l7.24,5.4c1.18,.88,2.73,1.08,4.09,.52Z" style="opacity:.1;"></path><path d="M202.63,356.97l9.87,2.69c1.33,.36,2.75,.01,3.75-.93l3.35-3.12c.81-.75,1.26-1.8,1.26-2.91v-4.48c0-1.14-.49-2.23-1.35-2.98-1.46-1.29-3.7-3.25-4.55-3.96-.86-.71-5.27-1.52-8.19-1.99-1.59-.26-3.17,.47-4.01,1.84l-4.05,6.59c-.7,1.14-.78,2.57-.21,3.78l1.57,3.33c.5,1.05,1.43,1.83,2.55,2.13Z" style="opacity:.1;"></path><path d="M225.62,333.28l-9.73,4.09c-.19,.08-.37,.21-.5,.37h0c-.46,.54-.42,1.35,.1,1.84l6.08,5.75c.44,.41,1.1,.48,1.62,.18,2.96-1.74,4.53-4.47,5.05-5.49,.13-.26,.17-.55,.11-.83l-.9-4.9c-.15-.84-1.05-1.32-1.84-.99Z" style="opacity:.1;"></path><path d="M244.44,323.53c-.52,.09-4.92,.81-5.34,1.02-.42,.21-6.28,4.84-6.28,4.84l-1.98,8.14c-.42,1.71,.66,3.43,2.39,3.78,2.43,.5,5.75,1.03,7.97,.73,3.88-.52,9.01-6.58,10.06-9.42,1.05-2.84-4.32-9.52-6.81-9.1Z" style="opacity:.1;"></path><path d="M289.69,294.78c-.62,.34-.59,6.06,2.79,5.96,3.38-.1,7.21,0,7.21,0,0,0,4.77,.65,5.68-4.61,.91-5.26,3-10.14-.28-9.93-3.27,.21-15.4,8.58-15.4,8.58Z" style="opacity:.1;"></path><path d="M302.36,304.39v4.75s1.91,1.06,4.5,0c2.6-1.06,4.3-5.18,1.75-5.99-2.55-.81-6.25-.11-6.25,1.24Z" style="opacity:.1;"></path><path d="M312.49,286.19c-1.87,1.49-6.15,9.99-4.44,12.54,1.71,2.55,4.48,3.61,7.03,3.19,2.55-.42,11.86-5.56,13.26-7.13s4.16-5.62,3.1-8.59c-1.06-2.97-10.2-7.99-13.81-7.07-3.61,.92-5.14,7.07-5.14,7.07Z" style="opacity:.1;"></path></g><g><g style="opacity:.1;"><path d="M456.47,304.17c.38-1.56,1.68-2.73,3.27-2.91,1.18-.13,2.63,.02,4.12,.89,3.56,2.09,9.83,16.11,8.58,17.58-1.26,1.46-5.28,2.3-7.66,1.67-1.77-.47-6.73-4.63-9.16-6.74-.85-.74-1.22-1.89-.96-2.99l1.81-7.51Z"></path><path d="M472.6,321.61c3.39-.84,9.67-3.14,12.18-2.09s3.14,7.53,2.51,10.25c-.63,2.72-2.72,8.16-5.65,8.37-2.93,.21-12.55-9.62-12.76-11.09-.21-1.46,3.72-5.44,3.72-5.44Z"></path><path d="M468.87,294.2c.21-.04,16.75,10.67,16.75,10.67,.63,1.46,.63,7.11-1.67,9.42-2.3,2.3-3.34,3.98-5.75,3.14-2.41-.84-7.43-9.42-8.48-13.6-1.05-4.18-3.48-9.1-.85-9.62Z"></path><path d="M498.8,311.41s5.44,7.06,4.18,10.2c-1.26,3.14-5.02,5.65-7.74,5.86-2.72,.21-7.72-9.82-7.72-9.82,0,0,1.03-6.08,2.91-7.96s8.37,1.73,8.37,1.73Z"></path></g><g style="opacity:.1;"><path d="M388.07,276.61c-.27-1.06,.14-2.19,1.05-2.8,.67-.46,1.6-.83,2.77-.78,2.82,.13,11.1,6.59,10.81,7.87s-2.45,3.08-4.09,3.46c-1.22,.28-5.55-.64-7.69-1.14-.75-.17-1.34-.75-1.53-1.5l-1.31-5.12Z"></path><path d="M405.65,282.28c1.78-1.59,4.84-4.99,6.69-5.16s4.31,3.55,4.8,5.39c.49,1.84,.97,5.8-.73,6.87-1.7,1.06-10.67-1.8-11.26-2.61-.6-.82,.51-4.48,.51-4.48Z"></path><path d="M391.46,263.73c.14-.1,15.57,2.35,15.57,2.35,.93,.86,2.74,4.96,1.82,7.36-.93,2.41-1.14,3.96-3.16,4.12-2.02,.17-8.42-4.43-10.52-7.13s-5.45-5.48-3.71-6.71Z"></path><path d="M418.22,267.73s5.55,2.52,5.79,4.82c.25,2.3-1.23,5.02-2.8,6.02-1.58,1-7.81-3.46-7.81-3.46,0,0-1.32-4-.79-5.74,.54-1.74,5.61-1.63,5.61-1.63Z"></path></g><path d="M486.9,342.77c-.32-.61,.66-7.1,1.3-7.23s8.81-3.2,8.81-3.2c0,0,7.16,5.2,8.59,6.59s1.23,9.16,0,10.59c-1.23,1.43-3.57,9.32-6.26,9.35-4.73,.04-6.6-2.85-8.44-2.99-1.84-.14-4-13.11-4-13.11Z" style="opacity:.1;"></path><path d="M509.77,347.3c2.1-2.89,5.91-4.28,9.56-3.48,2.29,.5,4.49,1.03,5.12,1.29,1.4,.57,4.05,6.55,4.05,6.55l1.64,3.62c1.47,3.27,.6,7.04-2.19,9.45l-3.34,2.89c-1.14,.99-2.53,1.68-4.05,2.02-2.52,.56-6.32,1.36-7.39,1.36-.27,0-.64-.07-1.05-.18-3.33-.91-5.72-3.64-6.21-6.84l-.51-3.28c-.13-.87-.12-1.74,.04-2.61l.84-4.62c.22-1.19,.71-2.32,1.43-3.32l2.07-2.84Z" style="opacity:.1;"></path><path d="M529.3,377.31h0c-.57-1.72-2.08-2.94-3.88-3.14-3.94-.43-10.53-1.14-11.42-1.14-.75,0-4.49,.63-7.47,1.15-2.33,.41-4.31,2.59-5.18,5.7-.97,3.48,.45,8.43,1.4,8.83,2.89,1.23,11.22,1.06,18.41,.63,6-.36,10.03-6.32,8.13-12.03Z" style="opacity:.1;"></path><path d="M542.82,385.21c-.64-.26-1.3-.52-1.94-.77-3.19-1.27-5.6-3.97-6.5-7.28h0c-.86-3.16-.26-6.53,1.63-9.2l1.95-2.75c1.09-1.54,2.56-2.77,4.26-3.57l.84-.4c3.34-1.57,7.25-1.35,10.39,.59l2.23,1.37c2.69,1.66,4.52,4.39,5.04,7.51l.04,.26c.67,4.04-.97,8.12-4.25,10.56l-3.09,2.3c-3.06,2.28-7.08,2.8-10.62,1.38Z" style="opacity:.1;"></path><path d="M553.02,355.05l-9.87,2.69c-1.33,.36-2.75,.01-3.75-.93l-3.35-3.12c-.81-.75-1.26-1.8-1.26-2.91v-4.48c0-1.14,.49-2.23,1.35-2.98,1.46-1.29,3.7-3.25,4.55-3.96,.86-.71,5.27-1.52,8.19-1.99,1.59-.26,3.17,.47,4.01,1.84l4.05,6.59c.7,1.14,.78,2.57,.21,3.78l-1.57,3.33c-.5,1.05-1.43,1.83-2.55,2.13Z" style="opacity:.1;"></path><path d="M527.66,331.35l9.73,4.09c.19,.08,.37,.21,.5,.37h0c.46,.54,.42,1.35-.1,1.84l-6.08,5.75c-.44,.41-1.1,.48-1.62,.18-2.96-1.74-4.53-4.47-5.05-5.49-.13-.26-.17-.55-.11-.83l.9-4.9c.15-.84,1.05-1.32,1.84-.99Z" style="opacity:.1;"></path><path d="M508.84,321.61c.52,.09,4.92,.81,5.34,1.02,.42,.21,6.28,4.84,6.28,4.84l1.98,8.14c.42,1.71-.66,3.43-2.39,3.78-2.43,.5-5.75,1.03-7.97,.73-3.88-.52-9.01-6.58-10.06-9.42-1.05-2.84,4.32-9.52,6.81-9.1Z" style="opacity:.1;"></path><path d="M463.59,292.85c.62,.34,.59,6.06-2.79,5.96-3.38-.1-7.21,0-7.21,0,0,0-4.77,.65-5.68-4.61-.91-5.26-3-10.14,.28-9.93,3.27,.21,15.4,8.58,15.4,8.58Z" style="opacity:.1;"></path><path d="M450.92,302.46v4.75s-1.91,1.06-4.5,0c-2.6-1.06-4.3-5.18-1.75-5.99,2.55-.81,6.25-.11,6.25,1.24Z" style="opacity:.1;"></path><path d="M440.79,284.26c1.87,1.49,6.15,9.99,4.44,12.54-1.71,2.55-4.48,3.61-7.03,3.19-2.55-.42-11.86-5.56-13.26-7.14s-4.16-5.62-3.1-8.59c1.06-2.97,10.2-7.99,13.81-7.07,3.61,.92,5.14,7.07,5.14,7.07Z" style="opacity:.1;"></path></g><path d="M366.67,266.88c-.66,1.16-1.82,3.08-1.37,4.8,.45,1.72,3.37,3.88,4.29,4.8,.92,.92,3.37,5.54,6.92,5.08,3.55-.46,5.24-3.75,4.78-9.88-.46-6.13-1.55-7.62-4.78-7.95-3.22-.33-8.41,.64-9.84,3.15Z" style="opacity:.1;"></path><path d="M385.13,265.65c-2,1.44-3.39,4.71-1.69,5.69,1.69,.98,5.69,0,6.62-.89,.92-.9-.9-3.77-.99-3.95s-3.93-.85-3.93-.85Z" style="opacity:.1;"></path><g style="opacity:.2;"><path d="M268.42,366.3c-1.58-.76-2.55-.15-3.48,1.28-2.15,4.49-3.26,9.48-3.2,14.46,.01,1.03,.21,2.27,1.15,2.68,1.07,.47,2.22-.53,2.79-1.55,1.85-3.33,1.16-7.5,2.37-11.12,.27-.8,.44-1.62,.72-2.41,.62-1.76,.41-2.98-.35-3.34Z" style="fill:#fff;"></path></g><g style="opacity:.2;"><path d="M281.67,342.88c-.85-1.01-1.71-.9-2.79-.21-2.88,2.42-5.19,5.5-6.71,8.94-.31,.71-.56,1.62-.04,2.2,.59,.65,1.69,.33,2.4-.19,2.31-1.71,3.14-4.8,5.09-6.9,.43-.46,.8-.97,1.24-1.43,.98-1.01,1.21-1.92,.8-2.4Z" style="fill:#fff;"></path></g><g style="opacity:.2;"><path d="M302.1,323.69c-.71-1.11-1.58-1.1-2.74-.56-3.16,2.03-5.85,4.8-7.78,8.02-.4,.67-.77,1.54-.32,2.17,.51,.72,1.64,.54,2.41,.11,2.51-1.4,3.72-4.36,5.93-6.2,.49-.41,.92-.86,1.42-1.26,1.1-.88,1.44-1.75,1.1-2.28Z" style="fill:#fff;"></path></g><g style="opacity:.2;"><path d="M325.85,307.86c-.51-1.22-1.37-1.36-2.61-1.02-3.46,1.46-6.58,3.72-9.05,6.56-.51,.59-1.02,1.38-.69,2.09,.37,.8,1.52,.82,2.35,.52,2.71-.95,4.41-3.65,6.9-5.09,.55-.32,1.06-.69,1.61-1,1.23-.68,1.72-1.48,1.48-2.06Z" style="fill:#fff;"></path></g><g style="opacity:.2;"><path d="M349.79,297.63c-.37-1.27-1.2-1.51-2.47-1.32-3.61,1.05-6.97,2.93-9.75,5.46-.57,.52-1.17,1.25-.93,1.99,.28,.84,1.41,.99,2.27,.79,2.81-.63,4.81-3.12,7.45-4.25,.58-.25,1.13-.57,1.72-.8,1.3-.53,1.88-1.27,1.71-1.87Z" style="fill:#fff;"></path></g><g><rect x="169.32" y="317.95" width="28.81" height="74.38" style="fill:#AD8A32;"></rect><rect x="165.92" y="308.62" width="35.25" height="9.43" rx="1.23" ry="1.23" style="fill:#AD8A32;"></rect><rect x="165.92" y="308.62" width="35.25" height="9.43" rx="1.23" ry="1.23" style="opacity:.2;"></rect><rect x="198.13" y="323.51" width="3.04" height="68.81" style="opacity:.1;"></rect><path d="M186.49,369.83c1.64-.83,4-1.98,5.58-2.75,1.06-.52,1.86-1.61,2.16-2.97l1.1-4.94c.29-1.29,.09-2.66-.54-3.75l-3.23-5.6c-.36-.63-.85-1.13-1.41-1.45l-3.73-2.16c-1.11-.64-2.4-.55-3.44,.24l-5.24,3.97c-.89,.67-1.5,1.79-1.67,3.06l-.78,5.76c-.22,1.64,.32,3.3,1.41,4.3l6.26,5.74c1.02,.94,2.36,1.15,3.54,.55Z" style="opacity:.1;"></path><path d="M174.9,341.3l8.04,2.19c1.08,.29,2.24,0,3.06-.76l2.73-2.54c.66-.61,1.03-1.47,1.03-2.37v-3.64c0-.93-.4-1.81-1.1-2.43-1.19-1.05-3.01-2.65-3.71-3.22-.7-.58-4.29-1.24-6.67-1.62-1.29-.21-2.58,.39-3.27,1.5l-3.3,5.37c-.57,.93-.64,2.09-.17,3.08l1.28,2.71c.4,.85,1.16,1.49,2.07,1.74Z" style="opacity:.1;"></path><path d="M193.62,322l-7.92,3.33c-.16,.07-.3,.17-.41,.3h0c-.37,.44-.34,1.1,.08,1.5l4.95,4.68c.36,.34,.89,.39,1.32,.14,2.41-1.42,3.69-3.64,4.11-4.47,.11-.21,.14-.45,.09-.68l-.74-3.99c-.13-.68-.85-1.08-1.49-.81Z" style="opacity:.1;"></path><path d="M194.87,335.23l-4.42,5.8v4.76s4.06,3.29,4.87,1.73,1.52-12.76-.45-12.3Z" style="opacity:.1;"></path><path d="M174.62,349.52c2.22-.42,5.14-2.34,4.94-3.24-.2-.91-2.82-2.53-3.83-2.68-1.01-.15-4.32,.46-3.92,1.47s2.81,4.45,2.81,4.45Z" style="opacity:.1;"></path><path d="M172.42,368.72c-.17-1.49,1.58-2.45,2.83-1.62,2.06,1.38,5.34,3.64,6.15,4.58,1.21,1.41,2.42,1.6,2.72,3.27,.3,1.67-.1,5.1,0,6.21,.1,1.11,.33,4.03-.95,6.01-1.57,2.42-3.09,3.06-5.51,2.86-2.42-.2-4.42,.31-5.33-2.11-.91-2.42,.29-17.64,.09-19.16v-.05Z" style="opacity:.1;"></path><path d="M192.37,370.18c-.5,.2-4.34,3.02-4.64,4.34s-1.92,2.32-.6,4.23c1.31,1.92,2.92,3.53,2.92,3.53,0,0,2.22-.4,3.13,0,.91,.4,3.53-3.13,3.53-3.13,0,0-.4-6.55-1.81-7.86-1.41-1.31-2.52-1.11-2.52-1.11Z" style="opacity:.1;"></path><g style="opacity:.1;"><path d="M172.31,321.88h0c.08,.56,.46,1.03,.99,1.23,2.46,.93,4.98,1.78,7.59,1.89,1.82,.07,3.71-.28,5.31-1.12,1.29-.68,1.06-2.57-.36-2.92-3.95-.97-8.07-1.27-12.12-.86-.9,.09-1.54,.9-1.41,1.8Z"></path></g></g><g><rect x="558.82" y="317.95" width="28.81" height="74.38" transform="translate(1146.45 710.27) rotate(180)" style="fill:#AD8A32;"></rect><rect x="555.78" y="308.62" width="35.25" height="9.43" rx="1.23" ry="1.23" transform="translate(1146.81 626.68) rotate(180)" style="fill:#AD8A32;"></rect><rect x="555.78" y="308.62" width="35.25" height="9.43" rx="1.23" ry="1.23" transform="translate(1146.81 626.68) rotate(180)" style="opacity:.2;"></rect><rect x="555.78" y="323.51" width="3.04" height="68.81" transform="translate(1114.6 715.84) rotate(180)" style="opacity:.1;"></rect><path d="M570.46,369.83c-1.64-.83-4-1.98-5.58-2.75-1.06-.52-1.86-1.61-2.16-2.97l-1.1-4.94c-.29-1.29-.09-2.66,.54-3.75l3.23-5.6c.36-.63,.85-1.13,1.41-1.45l3.73-2.16c1.11-.64,2.4-.55,3.44,.24l5.24,3.97c.89,.67,1.5,1.79,1.67,3.06l.78,5.76c.22,1.64-.32,3.3-1.41,4.3l-6.26,5.74c-1.02,.94-2.36,1.15-3.54,.55Z" style="opacity:.1;"></path><path d="M582.06,341.3l-8.04,2.19c-1.08,.29-2.24,0-3.06-.76l-2.73-2.54c-.66-.61-1.03-1.47-1.03-2.37v-3.64c0-.93,.4-1.81,1.1-2.43,1.19-1.05,3.01-2.65,3.71-3.22,.7-.58,4.29-1.24,6.67-1.62,1.29-.21,2.58,.39,3.27,1.5l3.3,5.37c.57,.93,.64,2.09,.17,3.08l-1.28,2.71c-.4,.85-1.16,1.49-2.07,1.74Z" style="opacity:.1;"></path><path d="M563.34,322l7.92,3.33c.16,.07,.3,.17,.41,.3h0c.37,.44,.34,1.1-.08,1.5l-4.95,4.68c-.36,.34-.89,.39-1.32,.14-2.41-1.42-3.69-3.64-4.11-4.47-.11-.21-.14-.45-.09-.68l.74-3.99c.13-.68,.85-1.08,1.49-.81Z" style="opacity:.1;"></path><path d="M562.08,335.23l4.42,5.8v4.76s-4.06,3.29-4.87,1.73-1.52-12.76,.45-12.3Z" style="opacity:.1;"></path><path d="M582.33,349.52c-2.22-.42-5.14-2.34-4.94-3.24,.2-.91,2.82-2.53,3.83-2.68,1.01-.15,4.32,.46,3.92,1.47-.39,1.01-2.81,4.45-2.81,4.45Z" style="opacity:.1;"></path><path d="M584.53,368.72c.17-1.49-1.58-2.45-2.83-1.62-2.06,1.38-5.34,3.64-6.15,4.58-1.21,1.41-2.42,1.6-2.72,3.27-.3,1.67,.1,5.1,0,6.21-.1,1.11-.33,4.03,.95,6.01,1.57,2.42,3.09,3.06,5.5,2.86,2.42-.2,4.42,.31,5.33-2.11,.91-2.42-.29-17.64-.09-19.16v-.05Z" style="opacity:.1;"></path><path d="M564.58,370.18c.5,.2,4.34,3.02,4.64,4.34s1.92,2.32,.6,4.23c-1.31,1.92-2.92,3.53-2.92,3.53,0,0-2.22-.4-3.13,0-.91,.4-3.53-3.13-3.53-3.13,0,0,.4-6.55,1.81-7.86,1.41-1.31,2.52-1.11,2.52-1.11Z" style="opacity:.1;"></path><g style="opacity:.1;"><path d="M584.64,321.88h0c-.08,.56-.46,1.03-.99,1.23-2.46,.93-4.98,1.78-7.59,1.89-1.82,.07-3.71-.28-5.31-1.12-1.29-.68-1.06-2.57,.36-2.92,3.95-.97,8.07-1.27,12.12-.86,.9,.09,1.54,.9,1.41,1.8Z"></path></g></g></g></g><g id="freepik--Water--inject-522"><g><rect x="202.17" y="392.27" width="390.66" height=".75" style="fill:#263238;"></rect><rect x="333.79" y="401.04" width="73.39" height=".75" style="fill:#263238;"></rect><rect x="315.44" y="409.67" width="40.47" height=".75" style="fill:#263238;"></rect><rect x="363.54" y="420.9" width="25.35" height=".75" style="fill:#263238;"></rect><rect x="335.25" y="435.17" width="75.71" height=".75" style="fill:#263238;"></rect></g></g><g id="freepik--Plants--inject-522"><path d="M472.38,390.55c1.54-1.99,3.09-4.01,4.03-6.34s1.19-5.06,.1-7.32c-3.89,3.36-6.33,8.35-6.61,13.48-1.91-5.61-4.84-10.88-8.59-15.47-.81,3.03-.42,6.32,.81,9.2,1.23,2.89,3.28,5.38,5.7,7.38-3.92-1.91-8.16-3.14-12.49-3.65,4.26,4.29,9.42,6.78,15.46,7.09l1.03-.35c4.54-1.42,7.53-4.62,9.56-7.37,.85-1.16,1.83-2.84,1.5-3.17-3.71,1.8-7.23,3.99-10.49,6.52Z" style="fill:#263238;"></path><path d="M57.23,390.55c1.54-1.99,3.09-4.01,4.03-6.34s1.19-5.06,.1-7.32c-3.89,3.36-6.33,8.35-6.61,13.48-1.92-5.61-4.84-10.88-8.59-15.47-.81,3.03-.42,6.32,.81,9.2s3.28,5.38,5.7,7.38c-3.92-1.91-8.16-3.14-12.49-3.65,4.26,4.29,9.42,6.78,15.46,7.09l1.03-.35c4.54-1.42,7.53-4.62,9.56-7.37,.85-1.16,1.83-2.84,1.5-3.17-3.71,1.8-7.23,3.99-10.49,6.52Z" style="fill:#263238;"></path><path d="M559.87,389.45c2.05-2.66,4.13-5.36,5.38-8.47,1.25-3.12,1.58-6.76,.13-9.78-5.2,4.49-8.46,11.15-8.82,18.01-2.56-7.5-6.46-14.53-11.47-20.66-1.08,4.05-.57,8.44,1.08,12.3,1.65,3.85,4.38,7.19,7.62,9.86-5.24-2.55-10.91-4.2-16.69-4.87,5.69,5.73,12.59,9.06,20.65,9.47l1.38-.47c6.06-1.9,10.06-6.18,12.77-9.85,1.14-1.55,2.45-3.79,2-4.24-4.96,2.41-9.66,5.33-14.01,8.71Z" style="fill:#263238;"></path><path d="M645.76,390.21c1.15-1.48,2.31-2.99,3-4.73,.7-1.74,.88-3.77,.07-5.46-2.9,2.51-4.72,6.22-4.92,10.05-1.43-4.18-3.61-8.11-6.4-11.53-.6,2.26-.32,4.71,.6,6.86,.92,2.15,2.45,4.01,4.25,5.5-2.92-1.42-6.08-2.34-9.31-2.72,3.17,3.2,7.02,5.05,11.52,5.28l.77-.26c3.38-1.06,5.62-3.45,7.13-5.49,.64-.86,1.37-2.12,1.12-2.37-2.77,1.34-5.39,2.97-7.82,4.86Z" style="fill:#263238;"></path><path d="M201.03,385.92c2.05-2.65,4.12-5.34,5.37-8.45,1.25-3.11,1.58-6.74,.13-9.76-5.18,4.48-8.44,11.13-8.8,17.97-2.55-7.48-6.45-14.5-11.45-20.62-1.08,4.04-.57,8.42,1.08,12.27,1.64,3.85,4.37,7.17,7.6,9.83-5.22-2.54-10.88-4.19-16.65-4.86,5.67,5.72,12.56,9.04,20.6,9.45l1.37-.47c6.05-1.9,10.04-6.16,12.74-9.82,1.14-1.54,2.45-3.78,1.99-4.23-4.94,2.4-9.64,5.32-13.98,8.69Z" style="fill:#263238;"></path></g></svg>
